# xmcd
#
# Track frame offsets:
#	150
#	18907
#	38740
#	57755
#	76622
#	95360
#	114997
#	134010
#
# Disc length: 2038 seconds
#
# Revision: 1
# Processed by: cddbd v1.5.1PL2 Copyright (c) Steve Scherf et al.
# Submitted via: audiograbber 1.83.01
#
DISCID=5607f408
DTITLE=Various Artist - SC7762
DYEAR=1900
DGENRE=Karaoke
TTITLE0=Shania Twain - Man! I Feel Like A Woman
TTITLE1=Faith Hill - Breathe
TTITLE2=Dixie Chicks - Ready To Run
TTITLE3=Trisha Yearwood - Real Live Woman
TTITLE4=Shania Twain - Vocal
TTITLE5=Faith Hill - Vocal
TTITLE6=Dixie Chicks - Vocal
TTITLE7=Trisha Yearwood - Vocal
EXTD=
EXTT0=
EXTT1=
EXTT2=
EXTT3=
EXTT4=
EXTT5=
EXTT6=
EXTT7=
PLAYORDER=
